<?xml version="1.0" standalone="no"?><!DOCTYPE svg PUBLIC "-//W3C//DTD SVG 1.1//EN" "http://www.w3.org/Graphics/SVG/1.1/DTD/svg11.dtd"><svg t="1766116744213" class="icon" viewBox="0 0 1097 1024" version="1.1" xmlns="http://www.w3.org/2000/svg" p-id="13742" xmlns:xlink="http://www.w3.org/1999/xlink" width="68.5625" height="64"><path d="M317.288081 309.712586L218.81875 175.875961 201.166513 217.713648 279.031097 347.372786l8.794709 12.56387z" fill="#323650" p-id="13743"></path><path d="M833.914412 309.712586L932.352333 175.875961l17.652237 41.837687-77.864584 129.659138-8.794709 12.56387z" fill="#323650" p-id="13744"></path><path d="M423.389962 303.587699a145.709481 64.955207 0 1 0 291.418963 0 145.709481 64.955207 0 1 0-291.418963 0Z" fill="#EEEEEE" p-id="13745"></path><path d="M962.725488 578.76786c-27.326417 151.960007-248.450528 229.322036-663.309512 232.117497-342.8366 25.347608-136.632085 32.351965 618.613545 21.138711l44.695967-253.256208z" fill="#DAD9E8" p-id="13746"></path><path d="M948.653954 610.051896c-26.384127 149.290184-239.844277 225.333007-640.411859 228.097058-330.995153 24.876462-131.920634 31.786591 597.254966 20.730386l43.156893-248.827444z" fill="#C3E2FF" p-id="13747"></path><path d="M297.468576 434.220536m134.778915 0l277.316018 0q134.778915 0 134.778915 134.778915l0 0q0 134.778915-134.778915 134.778914l-277.316018 0q-134.778915 0-134.778915-134.778914l0 0q0-134.778915 134.778915-134.778915Z" fill="#364D80" p-id="13748"></path><path d="M393.048216 556.843907a42.937025 37.346103 90 1 0 74.692207 0 42.937025 37.346103 90 1 0-74.692207 0Z" fill="#C3E4FF" p-id="13749"></path><path d="M683.43066 556.843907a42.937025 37.346103 90 1 0 74.692207 0 42.937025 37.346103 90 1 0-74.692207 0Z" fill="#C3E4FF" p-id="13750"></path><path d="M500.90904 628.395146c49.030502 12.281183 100.322501 12.281183 149.353003 0a28.614214 28.614214 0 0 1-28.614213 28.645623h-92.093167a28.614214 28.614214 0 0 1-28.645623-28.645623z" fill="#C3E4FF" p-id="13751"></path></svg>