<svg xmlns="http://www.w3.org/2000/svg" viewBox="0 0 64 64">
  <path fill="#000000" d="M22 4c-2.8 0-5 2.8-5 6.2 0 3.5 2.2 6.3 5 6.3s5-2.8 5-6.3C27 6.8 24.8 4 22 4zm14 1c-2.6 0-4.6 2.6-4.6 5.8 0 3.2 2.1 5.8 4.6 5.8 2.6 0 4.6-2.6 4.6-5.8C40.6 7.6 38.6 5 36 5zm10 6c-2.4 0-4.2 2.4-4.2 5.3 0 2.9 1.9 5.3 4.2 5.3s4.2-2.4 4.2-5.3C50.2 13.4 48.4 11 46 11zm-27.5 8c-2.3 0-4.1 2.3-4.1 5.1 0 2.8 1.8 5.1 4.1 5.1s4.1-2.3 4.1-5.1c0-2.8-1.8-5.1-4.1-5.1zM28 28c-5.9 0-11 4.5-11 10.5 0 5.6 3.6 10.9 6.7 14.7 1.5 1.9 3.2 3.6 5 5.1 1.4 1.1 3.1 1.7 4.9 1.7h4.2c2.1 0 4-1.1 5.2-2.7 2.7-3.7 5.6-8.8 5.6-13.8C48.6 35.2 39 28 28 28z"/>
</svg>
